<?xml version="1.0" standalone="no"?>
<!DOCTYPE svg PUBLIC "-//W3C//DTD SVG 20010904//EN"
 "http://www.w3.org/TR/2001/REC-SVG-20010904/DTD/svg10.dtd">
<svg version="1.0" xmlns="http://www.w3.org/2000/svg"
 width="481.000000pt" height="482.000000pt" viewBox="0 0 481.000000 482.000000"
 preserveAspectRatio="xMidYMid meet">

<g transform="translate(0.000000,482.000000) scale(0.100000,-0.100000)"
fill="#000000" stroke="none">
<path d="M2175 4804 c-195 -28 -257 -39 -356 -64 -431 -108 -845 -348 -1145
-663 -357 -375 -571 -814 -651 -1337 -24 -159 -24 -501 0 -660 83 -541 310
-995 686 -1370 472 -471 1090 -716 1761 -697 272 8 443 37 688 118 874 288
1497 1040 1628 1964 25 178 23 478 -5 660 -145 951 -820 1719 -1732 1969 -228
62 -346 78 -609 81 -129 2 -248 1 -265 -1z m-349 -778 c102 -47 163 -126 184
-234 26 -139 -54 -285 -189 -345 -64 -28 -178 -28 -243 0 -253 113 -256 462
-4 579 39 18 68 24 126 24 58 0 87 -6 126 -24z m-213 -628 c268 -28 299 -33
309 -51 5 -11 41 -137 79 -280 37 -143 72 -263 76 -267 4 -4 90 -76 191 -160
100 -84 182 -159 182 -165 0 -18 -79 -115 -93 -115 -12 0 -94 63 -339 257
-108 85 -119 97 -129 138 -6 25 -13 44 -16 42 -6 -7 -83 -589 -83 -634 0 -23
32 -310 70 -637 39 -328 70 -614 70 -636 0 -27 -5 -42 -17 -49 -10 -5 -69 -15
-132 -22 -104 -12 -115 -11 -126 4 -7 10 -54 270 -104 580 -51 309 -95 569
-98 577 -3 8 -49 -245 -103 -562 -53 -318 -102 -584 -109 -592 -8 -9 -28 -16
-45 -16 -65 1 -208 27 -222 42 -14 14 -1 129 120 1089 75 591 136 1081 136
1089 0 11 -5 9 -18 -7 -9 -11 -43 -53 -75 -91 l-58 -70 -25 -234 c-13 -128
-27 -243 -30 -255 -4 -21 -10 -23 -62 -23 -94 0 -90 -15 -79 295 l10 270 80
105 c185 240 324 410 336 410 3 0 140 -14 304 -32z m1334 -114 c196 -93 232
-358 68 -502 -56 -49 -119 -72 -200 -72 -122 0 -219 60 -272 168 -24 48 -28
69 -28 137 0 67 5 88 27 131 79 152 252 210 405 138z m910 -209 c3 -9 -34
-185 -81 -392 l-87 -375 98 -152 c72 -110 105 -152 121 -154 19 -3 22 -9 22
-53 l0 -49 -70 0 -70 0 0 -50 c0 -52 45 -848 55 -982 l6 -78 -160 0 -161 0 0
28 c0 15 14 254 30 532 16 278 30 515 30 528 l0 22 -330 0 -330 0 0 50 0 50
446 0 c353 0 445 3 441 13 -16 41 -135 247 -139 240 -3 -4 -11 -36 -18 -71
-10 -48 -16 -62 -27 -57 -8 3 -33 8 -54 11 -26 4 -38 11 -35 19 2 7 67 220
143 474 132 441 151 493 170 446z m-1075 -410 c56 -9 108 -21 116 -27 8 -7 61
-107 119 -223 58 -115 107 -211 108 -213 2 -2 85 -16 186 -32 101 -16 189 -32
196 -34 15 -6 7 -94 -11 -113 -9 -10 -59 -8 -231 8 -121 12 -226 26 -232 31
-7 6 -43 68 -80 139 -37 70 -69 126 -72 124 -4 -5 -70 -454 -71 -486 0 -15 27
-17 236 -24 228 -7 236 -8 243 -29 4 -11 29 -222 56 -468 45 -421 47 -449 31
-466 -24 -27 -236 -56 -250 -34 -2 4 -25 154 -50 332 -26 179 -49 335 -51 348
-5 21 -10 22 -88 22 -45 0 -173 3 -285 7 -179 5 -204 8 -212 24 -13 24 134
1109 152 1121 19 12 77 10 190 -7z m-451 -365 c12 -25 26 -135 48 -375 17
-187 34 -359 37 -382 l6 -43 274 0 274 0 0 -50 0 -50 -133 0 -133 0 -22 -222
c-12 -123 -22 -238 -22 -255 l0 -33 155 0 c148 0 155 -1 155 -20 0 -20 -7 -20
-312 -20 -243 0 -309 -3 -300 -12 17 -17 15 -55 -4 -62 -34 -13 -59 35 -32 62
9 9 9 12 0 12 -7 0 -12 9 -12 20 0 19 7 20 140 20 127 0 140 2 140 18 0 9 -10
124 -22 255 l-22 237 -118 0 -118 0 0 34 c0 19 -18 225 -41 457 -22 232 -38
428 -35 436 4 10 18 13 43 11 32 -3 41 -8 54 -38z m624 -1495 c0 -25 -4 -30
-25 -30 -16 0 -26 6 -28 18 -6 30 6 49 30 45 18 -2 23 -9 23 -33z"/>
</g>
</svg>
